# xmcd CD database file
#
# Track frame offsets:
#	182
#	60675
#	100475
#	129925
#
# Disc length: 2419 seconds
#
# Revision: 1
# Processed by: cddbd v1.5.2PL0 Copyright (c) Steve Scherf et al.
# Submitted via: CDex 1.70beta2
#
DISCID=30097104
DTITLE=George Lewis - Monads
DYEAR=1978
DGENRE=Jazz
TTITLE0=Monads
TTITLE1=Triple Slow Mix
TTITLE2=Cycle
TTITLE3=Shadowgraph, 5 (Sextet)
EXTD=YEAR: 1978
EXTT0=
EXTT1=
EXTT2=
EXTT3=
PLAYORDER=
